:SAMPLES-PER-SECOND 30
:FULLY-SPECIFIED
:DEGREES
32
root  76.6271 38.417 7.59974 176.901 -85.5168 179.426
RightUpLeg  -20.5285 -7.79977 -0.283258
RightLeg  4.97362 -13.2196 4.89696
RightFoot  -0.407194 -0.829921 8.61752
RightToes  -2.9104e-010 0 -3.6325e-017
Spine  10.3537 -2.22386 -4.27402
Spine1  10.5356 -3.54462 2.37885
HEad  -0.961278 6.82938 -0.186586
LeftShoulder1  8.52806 -12.3305 -46.9923
LeftArm  -6.03826 -4.65765 -34.4526
LeftForeArm  41.917 -8.24126 -6.7272
LeftHand  -0.244104 0.0205437 5.32207
RightShoulder  4.493 8.021 33.0434
RightArm  -11.4156 -23.8507 46.5732
RightForeArm  21.283 12.2804 5.23054
RightHand  -0.898632 2.53954 -13.3239
LeftUpLeg  13.6952 8.05909 -1.18758
LeftLeg  12.6795 12.7222 -1.66026
LeftFoot  -22.9467 -0.107772 -2.4089
LeftToes  -1.62803e-010 -2.57217e-011 -2.5681e-011
33
root  75.5293 38.2265 7.66653 176.291 -86.7681 -179.844
RightUpLeg  -20.6061 -5.78956 -0.564915
RightLeg  3.208 -14.5675 5.45601
RightFoot  -0.268224 -0.747318 7.68332
RightToes  -2.9104e-010 0 -3.6325e-017
Spine  10.7746 -2.69043 -4.30652
Spine1  10.334 -4.28154 3.14833
HEad  -1.75805 7.32235 -0.548013
LeftShoulder1  8.40582 -12.2469 -46.5553
LeftArm  -0.16763 -6.91571 -37.0781
LeftForeArm  44.708 -11.6012 -7.09063
LeftHand  -0.244104 0.0205437 5.32207
RightShoulder  4.54635 8.18437 32.9551
RightArm  -7.8881 -24.23 46.128
RightForeArm  21.1462 13.382 5.55349
RightHand  -0.911884 2.54576 -13.5059
LeftUpLeg  15.5699 8.42262 -0.527472
LeftLeg  12.402 10.6253 -2.06475
LeftFoot  -23.5741 -0.228802 -3.45523
LeftToes  -1.62803e-010 -2.57217e-011 -2.5681e-011
34
root  74.3362 38.1001 7.69738 153.577 -88.256 -156.935
RightUpLeg  -21.1357 -6.01513 0.192498
RightLeg  4.52174 -13.6052 5.02197
RightFoot  1.67074 -0.523014 4.76145
RightToes  -2.9104e-010 0 -3.6325e-017
Spine  11.1059 -3.10721 -4.07386
Spine1  10.0682 -5.09996 4.43513
HEad  -1.96889 6.80371 -1.40188
LeftShoulder1  8.47238 -12.433 -46.3704
LeftArm  6.7283 -7.82829 -39.2576
LeftForeArm  42.5748 -16.14 -5.8517
LeftHand  -0.244104 0.0205437 5.32207
RightShoulder  4.52143 8.16209 32.8158
RightArm  -5.96103 -24.1022 45.2064
RightForeArm  19.5699 13.6883 5.78981
RightHand  -0.966678 2.4419 -14.4761
LeftUpLeg  17.244 9.40183 0.956128
LeftLeg  12.649 7.1583 -2.14183
LeftFoot  -23.4424 -0.349239 -4.62219
LeftToes  -1.62803e-010 -2.57217e-011 -2.5681e-011
35
root  73.0289 38.035 7.70967 85.684 -88.5666 -88.7973
RightUpLeg  -22.1363 -8.37494 2.21975
RightLeg  8.33448 -10.6603 3.66848
RightFoot  4.6971 -0.0776594 0.774731
RightToes  -2.9104e-010 0 -3.6325e-017
Spine  11.3013 -3.50751 -3.09202
Spine1  9.60114 -5.83408 5.83891
HEad  -1.89036 5.61066 -2.21288
LeftShoulder1  8.832 -12.9429 -46.8535
LeftArm  10.8083 -7.71576 -40.3179
LeftForeArm  39.2702 -20.2836 -3.96762
LeftHand  -0.244104 0.0205437 5.32207
RightShoulder  4.4718 8.07124 32.6922
RightArm  -6.48413 -23.4194 43.9072
RightForeArm  19.3473 12.7851 5.93236
RightHand  -1.02525 2.55512 -15.1274
LeftUpLeg  18.5375 10.979 3.25918
LeftLeg  13.8338 3.09597 -1.58435
LeftFoot  -22.4232 -0.417356 -5.67684
LeftToes  -1.62803e-010 -2.57217e-011 -2.5681e-011
36
root  71.5979 37.9893 7.72491 57.1131 -86.8022 -60.2396
RightUpLeg  -23.1827 -12.5732 5.55829
RightLeg  13.4235 -5.82894 1.46217
RightFoot  6.28651 0.349322 -2.0036
RightToes  -2.9104e-010 0 -3.6325e-017
Spine  11.4869 -3.99336 -1.07709
Spine1  9.12582 -6.30147 6.56083
HEad  -1.93062 4.94105 -2.47094
LeftShoulder1  9.15462 -13.352 -47.4022
LeftArm  10.4781 -7.08934 -40.4473
LeftForeArm  37.8167 -23.3771 -3.1471
LeftHand  -0.244104 0.0205437 5.32207
RightShoulder  4.55835 8.24123 32.8676
RightArm  -8.90366 -21.9878 42.2647
RightForeArm  21.0134 10.8574 5.75511
RightHand  -1.03198 2.69676 -14.9656
LeftUpLeg  19.4681 12.43 6.01096
LeftLeg  16.4204 -0.645077 -0.736029
LeftFoot  -20.9835 -0.544351 -7.93963
LeftToes  -1.62803e-010 -2.57217e-011 -2.5681e-011
37
root  70.0971 37.9679 7.73009 63.417 -85.4318 -66.9712
RightUpLeg  -23.2986 -15.0577 8.33748
RightLeg  18.0969 -2.68717 -0.548496
RightFoot  5.08668 0.530347 -3.44245
RightToes  -2.9104e-010 0 -3.6325e-017
Spine  11.4356 -4.38489 1.51957
Spine1  9.4967 -6.32482 6.38283
HEad  -1.93465 4.92092 -2.22681
LeftShoulder1  9.16107 -13.4288 -47.215
LeftArm  8.04492 -6.29903 -40.2346
LeftForeArm  37.8766 -25.6596 -3.49007
LeftHand  -0.244104 0.0205437 5.32207
RightShoulder  4.80761 8.72487 33.3701
RightArm  -11.7093 -19.6349 40.6312
RightForeArm  21.8494 8.52415 5.14688
RightHand  -1.00562 2.59177 -14.7812
LeftUpLeg  19.5012 11.844 8.07549
LeftLeg  21.1009 -1.77373 -0.320312
LeftFoot  -18.1625 -0.592874 -11.9887
LeftToes  -1.62803e-010 -2.57217e-011 -2.5681e-011
